<!--
 Copyright © 2025 IAV GmbH Ingenieurgesellschaft Auto und Verkehr, All Rights Reserved.
 
 Licensed under the Apache License, Version 2.0 (the "License");
 you may not use this file except in compliance with the License.
 You may obtain a copy of the License at
 
 http://www.apache.org/licenses/LICENSE-2.0
 
 Unless required by applicable law or agreed to in writing, software
 distributed under the License is distributed on an "AS IS" BASIS,
 WITHOUT WARRANTIES OR CONDITIONS OF ANY KIND, either express or implied.
 See the License for the specific language governing permissions and
 limitations under the License.
 
 SPDX-License-Identifier: Apache-2.0
-->

<svg id="info-icon" fill="current" xmlns="http://www.w3.org/2000/svg" width="24" height="24"
     viewBox="0 0 24 24">
    <rect id="Rechteck_308" width="24" height="24" fill="none"/>
    <path id="info_FILL0_wght300_GRAD0_opsz24"
          d="M11.25,16.75h1.5V11h-1.5ZM12,9.3a.757.757,0,0,0,.575-.238.82.82,0,0,0,.225-.587.792.792,0,0,0-.225-.563.816.816,0,0,0-1.15,0,.792.792,0,0,0-.225.563.82.82,0,0,0,.225.587A.757.757,0,0,0,12,9.3Zm0,12.2a9.263,9.263,0,0,1-3.712-.75A9.432,9.432,0,0,1,3.25,15.712a9.563,9.563,0,0,1,0-7.425A9.435,9.435,0,0,1,8.288,3.25a9.563,9.563,0,0,1,7.425,0A9.437,9.437,0,0,1,20.75,8.287a9.563,9.563,0,0,1,0,7.425,9.435,9.435,0,0,1-5.037,5.038A9.27,9.27,0,0,1,12,21.5ZM12,20a7.721,7.721,0,0,0,5.675-2.325A7.721,7.721,0,0,0,20,12a7.721,7.721,0,0,0-2.325-5.675A7.721,7.721,0,0,0,12,4,7.721,7.721,0,0,0,6.325,6.325,7.721,7.721,0,0,0,4,12a7.721,7.721,0,0,0,2.325,5.675A7.721,7.721,0,0,0,12,20ZM12,12Z"
          transform="translate(-0.5 0.5)" fill="current"/>
</svg>
