<!--
 Copyright © 2024 IAV GmbH Ingenieurgesellschaft Auto und Verkehr, All Rights Reserved.
 
 Licensed under the Apache License, Version 2.0 (the "License");
 you may not use this file except in compliance with the License.
 You may obtain a copy of the License at
 
 http://www.apache.org/licenses/LICENSE-2.0
 
 Unless required by applicable law or agreed to in writing, software
 distributed under the License is distributed on an "AS IS" BASIS,
 WITHOUT WARRANTIES OR CONDITIONS OF ANY KIND, either express or implied.
 See the License for the specific language governing permissions and
 limitations under the License.
 
 SPDX-License-Identifier: Apache-2.0
-->

<svg id="framework-logo" xmlns="http://www.w3.org/2000/svg" width="420" height="56" viewBox="0 0 420 56">
  <defs>
    <clipPath id="clip-path">
      <rect id="Rechteck_497" width="229.293" height="37.934" transform="translate(0 0)" fill="current"/>
    </clipPath>
  </defs>
  <g id="Gruppe_804" transform="translate(-119.534 -175)">
    <rect id="Rechteck_266" width="420" height="56" transform="translate(119.534 175)" fill="none"/>
  </g>
  <g id="Gruppe_806" transform="translate(16 9.033)">
    <g id="Gruppe_805" clip-path="url(#clip-path)">
      <path id="Pfad_132" d="M130.73,3.072h3.616a5.979,5.979,0,0,1,2.025.322,3.884,3.884,0,0,1,1.522.975,4.407,4.407,0,0,1,.96,1.643,7.261,7.261,0,0,1,.337,2.34,7.192,7.192,0,0,1-.359,2.385,4.455,4.455,0,0,1-1.035,1.695,4.3,4.3,0,0,1-1.635,1.012,6.446,6.446,0,0,1-2.146.338H130.73Zm3.346,9.9a3.888,3.888,0,0,0,3.149-1.193,5.129,5.129,0,0,0,1-3.4,5.239,5.239,0,0,0-.937-3.345,3.551,3.551,0,0,0-2.947-1.169h-2.7v9.105Z" fill="current"/>
      <path id="Pfad_133" d="M141.425,3.071h.989v1.3h-.989Zm.06,2.986h.87v7.725h-.87Z" fill="current"/>
      <path id="Pfad_134" d="M145.662,14.622a1.728,1.728,0,0,0,.72,1.133,3.116,3.116,0,0,0,1.695.367,2.5,2.5,0,0,0,1.875-.622,2.958,2.958,0,0,0,.6-2.093V12.252a3.511,3.511,0,0,1-1.131,1.043,3.125,3.125,0,0,1-1.554.367,3.235,3.235,0,0,1-1.485-.322,2.944,2.944,0,0,1-1.034-.863,3.7,3.7,0,0,1-.6-1.238,5.348,5.348,0,0,1-.195-1.447,5.248,5.248,0,0,1,.24-1.635,3.615,3.615,0,0,1,.69-1.253,3.089,3.089,0,0,1,1.1-.8,3.566,3.566,0,0,1,1.456-.285,3.364,3.364,0,0,1,1.3.277,3.023,3.023,0,0,1,1.215,1.013V6.057h.871V13.5a3.569,3.569,0,0,1-.8,2.46,3.224,3.224,0,0,1-2.528.9,5.855,5.855,0,0,1-1.222-.12,3.121,3.121,0,0,1-.99-.383,2.122,2.122,0,0,1-.7-.689,2.483,2.483,0,0,1-.347-1.043Zm4.921-5.01a6.751,6.751,0,0,0-.054-.907,2.528,2.528,0,0,0-.179-.676,1.972,1.972,0,0,0-.323-.517,3.307,3.307,0,0,0-.464-.435,2.86,2.86,0,0,0-.721-.39,2.406,2.406,0,0,0-.794-.12,2.8,2.8,0,0,0-1.021.18,2.067,2.067,0,0,0-.81.57,2.775,2.775,0,0,0-.54,1,4.853,4.853,0,0,0-.2,1.463,4.244,4.244,0,0,0,.219,1.462,2.76,2.76,0,0,0,.563.961,2.056,2.056,0,0,0,.778.532,2.485,2.485,0,0,0,.885.165,2.927,2.927,0,0,0,.841-.105,2.722,2.722,0,0,0,.735-.375,2.528,2.528,0,0,0,.8-1,3.672,3.672,0,0,0,.278-1.523Z" fill="current"/>
      <path id="Pfad_135" d="M153.893,3.071h.989v1.3h-.989Zm.06,2.986h.87v7.725h-.87Z" fill="current"/>
      <path id="Pfad_136" d="M157.8,6.777h-1.2v-.72h1.2V3.926h.87V6.057h2.19v.72h-2.19v5.055a1.835,1.835,0,0,0,.24.967.9.9,0,0,0,.84.4,3.1,3.1,0,0,0,.66-.06A4.043,4.043,0,0,0,160.9,13l.18.7a3.821,3.821,0,0,1-.547.165,3.882,3.882,0,0,1-.848.075,2.013,2.013,0,0,1-1.035-.225,1.455,1.455,0,0,1-.563-.592,2.335,2.335,0,0,1-.232-.848q-.045-.48-.045-1Z" fill="current"/>
      <path id="Pfad_137" d="M167.769,12.687a3.811,3.811,0,0,1-.465.472,3.219,3.219,0,0,1-.615.412,3.521,3.521,0,0,1-.758.286,3.722,3.722,0,0,1-.907.1,3.04,3.04,0,0,1-1.951-.585,2.091,2.091,0,0,1-.734-1.739,2.252,2.252,0,0,1,.33-1.276,2.331,2.331,0,0,1,.877-.78,4.116,4.116,0,0,1,1.245-.4,12.333,12.333,0,0,1,1.447-.143l1.5-.059V8.741a2.565,2.565,0,0,0-.442-1.665,1.989,1.989,0,0,0-1.582-.525,4.1,4.1,0,0,0-.938.091,1.917,1.917,0,0,0-.637.261,1.439,1.439,0,0,0-.406.406,1.82,1.82,0,0,0-.224.517l-.795-.12q.418-1.89,3.029-1.889a4.151,4.151,0,0,1,1.365.2,2.048,2.048,0,0,1,1.38,1.462,4.475,4.475,0,0,1,.151,1.222v5.085h-.87Zm-.015-3.016-1.426.061a8.233,8.233,0,0,0-1.454.157,2.862,2.862,0,0,0-.945.36,1.375,1.375,0,0,0-.518.569,1.892,1.892,0,0,0-.157.8,1.6,1.6,0,0,0,.4,1.133,1.844,1.844,0,0,0,1.388.428,4.318,4.318,0,0,0,.983-.114,1.94,1.94,0,0,0,.8-.367,3.2,3.2,0,0,0,.443-.375,1.671,1.671,0,0,0,.285-.4,1.648,1.648,0,0,0,.158-.487,4,4,0,0,0,.045-.63Z" fill="current"/>
      <rect id="Rechteck_495" width="0.869" height="10.71" transform="translate(171.149 3.071)" fill="current"/>
      <path id="Pfad_138" d="M178.633,10.977a2.577,2.577,0,0,0,1.035,1.732,5.37,5.37,0,0,0,3.712.353,2.24,2.24,0,0,0,.848-.481,1.7,1.7,0,0,0,.45-.7,2.675,2.675,0,0,0,.135-.854,3.054,3.054,0,0,0-.082-.713,1.518,1.518,0,0,0-.316-.615,1.987,1.987,0,0,0-.667-.488,4.377,4.377,0,0,0-1.14-.33l-1.335-.224a8.888,8.888,0,0,1-1.387-.345,3.421,3.421,0,0,1-1.028-.548,2.139,2.139,0,0,1-.637-.847A3.156,3.156,0,0,1,178,5.666a2.53,2.53,0,0,1,.308-1.274,2.65,2.65,0,0,1,.825-.893,3.727,3.727,0,0,1,1.215-.525,6.182,6.182,0,0,1,1.477-.173,5.548,5.548,0,0,1,1.68.218,3.338,3.338,0,0,1,1.11.578,2.649,2.649,0,0,1,.675.818,4.951,4.951,0,0,1,.375.921l-.84.241a4.731,4.731,0,0,0-.352-.832,1.947,1.947,0,0,0-.54-.623,2.429,2.429,0,0,0-.848-.39,4.934,4.934,0,0,0-1.245-.135,5.139,5.139,0,0,0-1.38.157,2.519,2.519,0,0,0-.9.435,1.581,1.581,0,0,0-.5.66,2.217,2.217,0,0,0-.15.817,2.59,2.59,0,0,0,.1.781,1.327,1.327,0,0,0,.36.57,2.048,2.048,0,0,0,.683.4,6.066,6.066,0,0,0,1.072.285l1.516.271a7.26,7.26,0,0,1,1.4.39,3.132,3.132,0,0,1,.982.607,2.261,2.261,0,0,1,.577.878,3.474,3.474,0,0,1,.188,1.2,2.866,2.866,0,0,1-.24,1.163,2.631,2.631,0,0,1-.712.952,3.536,3.536,0,0,1-1.178.646,5.15,5.15,0,0,1-1.65.239,7.437,7.437,0,0,1-1.613-.164,3.911,3.911,0,0,1-1.3-.533,3.01,3.01,0,0,1-.923-.952,3.373,3.373,0,0,1-.45-1.425Z" fill="current"/>
      <path id="Pfad_139" d="M194.433,11.756a2.634,2.634,0,0,1-.96,1.636,3.458,3.458,0,0,1-2.221.63,3.232,3.232,0,0,1-2.587-1.072A4.377,4.377,0,0,1,187.742,10a5.648,5.648,0,0,1,.263-1.8,3.759,3.759,0,0,1,.735-1.312,3.083,3.083,0,0,1,1.11-.8,3.572,3.572,0,0,1,1.4-.269,3.613,3.613,0,0,1,1.53.292,2.776,2.776,0,0,1,1.028.795,3.206,3.206,0,0,1,.578,1.193,5.866,5.866,0,0,1,.179,1.484v.556h-5.94a4.521,4.521,0,0,0,.165,1.237,2.953,2.953,0,0,0,.495,1.005,2.361,2.361,0,0,0,.825.675,2.516,2.516,0,0,0,1.14.247,3.74,3.74,0,0,0,.99-.112,1.9,1.9,0,0,0,.675-.323,1.618,1.618,0,0,0,.428-.487,2.6,2.6,0,0,0,.248-.623Zm-.766-2.369a4.623,4.623,0,0,0-.135-1.155,2.567,2.567,0,0,0-.42-.908,1.87,1.87,0,0,0-.75-.592,2.675,2.675,0,0,0-1.11-.21,2.372,2.372,0,0,0-1.8.705,3.507,3.507,0,0,0-.809,2.16Z" fill="current"/>
      <path id="Pfad_140" d="M196.776,6.057h.87v1.26A3.533,3.533,0,0,1,198.711,6.3a2.446,2.446,0,0,1,1.275-.359c.11,0,.212,0,.308.007a2.467,2.467,0,0,1,.307.038l-.1.825A3.03,3.03,0,0,0,200,6.762a2.385,2.385,0,0,0-.8.142,2.12,2.12,0,0,0-.765.488,2.478,2.478,0,0,0-.57.728,2.139,2.139,0,0,0-.225,1.011v4.651h-.87Z" fill="current"/>
      <path id="Pfad_141" d="M201.823,6.057h1l2.625,6.779,2.684-6.779h.946l-3.12,7.725h-1.02Z" fill="current"/>
      <path id="Pfad_142" d="M210.7,3.071h.989v1.3H210.7Zm.059,2.986h.87v7.725h-.87Z" fill="current"/>
      <path id="Pfad_143" d="M220.649,11.262a3.4,3.4,0,0,1-1.034,2.032,3.176,3.176,0,0,1-2.205.728,3.832,3.832,0,0,1-1.5-.278,2.9,2.9,0,0,1-1.111-.81,3.729,3.729,0,0,1-.69-1.282,5.59,5.59,0,0,1-.239-1.7,5.388,5.388,0,0,1,.255-1.71,3.84,3.84,0,0,1,.719-1.3,3.125,3.125,0,0,1,1.133-.833,3.714,3.714,0,0,1,1.507-.292,3.007,3.007,0,0,1,2.033.652,3.165,3.165,0,0,1,1,1.838l-.84.21a3.751,3.751,0,0,0-.254-.78,2.1,2.1,0,0,0-.42-.616,1.851,1.851,0,0,0-.638-.4,2.484,2.484,0,0,0-.907-.149,2.6,2.6,0,0,0-1.2.255,2.356,2.356,0,0,0-.825.7,2.889,2.889,0,0,0-.479,1.057,5.977,5.977,0,0,0,0,2.67,3.109,3.109,0,0,0,.465,1.066,2.189,2.189,0,0,0,.817.7,2.639,2.639,0,0,0,1.207.255,2.171,2.171,0,0,0,1.643-.548,2.888,2.888,0,0,0,.7-1.462Z" fill="current"/>
      <path id="Pfad_144" d="M229.159,11.756a2.634,2.634,0,0,1-.96,1.636,3.458,3.458,0,0,1-2.221.63,3.232,3.232,0,0,1-2.587-1.072A4.377,4.377,0,0,1,222.468,10a5.648,5.648,0,0,1,.263-1.8,3.759,3.759,0,0,1,.735-1.312,3.084,3.084,0,0,1,1.11-.8,3.572,3.572,0,0,1,1.4-.269,3.613,3.613,0,0,1,1.53.292,2.776,2.776,0,0,1,1.028.795,3.206,3.206,0,0,1,.578,1.193,5.866,5.866,0,0,1,.179,1.484v.556h-5.94a4.521,4.521,0,0,0,.165,1.237,2.953,2.953,0,0,0,.495,1.005,2.361,2.361,0,0,0,.825.675,2.516,2.516,0,0,0,1.14.247,3.74,3.74,0,0,0,.99-.112,1.9,1.9,0,0,0,.675-.323,1.618,1.618,0,0,0,.428-.487,2.6,2.6,0,0,0,.248-.623Zm-.766-2.369a4.622,4.622,0,0,0-.135-1.155,2.567,2.567,0,0,0-.42-.908,1.87,1.87,0,0,0-.75-.592,2.675,2.675,0,0,0-1.11-.21,2.372,2.372,0,0,0-1.8.705,3.507,3.507,0,0,0-.809,2.16Z" fill="current"/>
      <path id="Pfad_145" d="M133.925,24.071h1.08l4.229,10.71h-.989l-1.29-3.269h-5.04l-1.274,3.269h-.961Zm2.7,6.6-2.205-5.595-2.176,5.595Z" fill="current"/>
      <path id="Pfad_146" d="M141.318,32.637a1.782,1.782,0,0,0,.765,1.274,3.233,3.233,0,0,0,1.71.375,2.357,2.357,0,0,0,1.589-.42,1.354,1.354,0,0,0,.465-1.049,2.011,2.011,0,0,0-.059-.5,1.028,1.028,0,0,0-.233-.427,1.338,1.338,0,0,0-.495-.33,4,4,0,0,0-.833-.226l-.944-.149a8.637,8.637,0,0,1-1.1-.256,2.753,2.753,0,0,1-.825-.4,1.6,1.6,0,0,1-.51-.615,2.131,2.131,0,0,1-.173-.908,1.9,1.9,0,0,1,.226-.922,2.029,2.029,0,0,1,.614-.69,2.988,2.988,0,0,1,.923-.428,4.216,4.216,0,0,1,1.148-.149,4.753,4.753,0,0,1,1.327.157,2.526,2.526,0,0,1,.87.428,1.945,1.945,0,0,1,.525.63,3.57,3.57,0,0,1,.292.764l-.795.165a3.318,3.318,0,0,0-.277-.607,1.428,1.428,0,0,0-.4-.435,1.741,1.741,0,0,0-.6-.262,4.556,4.556,0,0,0-1.9.022,1.837,1.837,0,0,0-.653.308,1.1,1.1,0,0,0-.352.45,1.348,1.348,0,0,0-.106.524,1.83,1.83,0,0,0,.061.488.8.8,0,0,0,.239.382,1.512,1.512,0,0,0,.5.285,4.661,4.661,0,0,0,.848.21l1.184.2a3.727,3.727,0,0,1,1.816.727,1.979,1.979,0,0,1,.6,1.582,2.018,2.018,0,0,1-.187.856,1.916,1.916,0,0,1-.555.7,2.785,2.785,0,0,1-.923.465,4.3,4.3,0,0,1-1.274.173,5.84,5.84,0,0,1-1.3-.135,3.123,3.123,0,0,1-1.027-.421,2.229,2.229,0,0,1-.705-.734,2.566,2.566,0,0,1-.33-1.095Z" fill="current"/>
      <path id="Pfad_147" d="M149.415,32.637a1.779,1.779,0,0,0,.765,1.274,3.226,3.226,0,0,0,1.709.375,2.362,2.362,0,0,0,1.59-.42,1.356,1.356,0,0,0,.464-1.049,2.012,2.012,0,0,0-.059-.5,1.037,1.037,0,0,0-.232-.427,1.351,1.351,0,0,0-.5-.33,4.006,4.006,0,0,0-.832-.226l-.944-.149a8.6,8.6,0,0,1-1.1-.256,2.748,2.748,0,0,1-.826-.4,1.611,1.611,0,0,1-.51-.615,2.132,2.132,0,0,1-.173-.908,1.9,1.9,0,0,1,.226-.922,2.04,2.04,0,0,1,.614-.69,2.988,2.988,0,0,1,.923-.428,4.218,4.218,0,0,1,1.149-.149,4.753,4.753,0,0,1,1.327.157,2.521,2.521,0,0,1,.869.428,1.936,1.936,0,0,1,.526.63,3.567,3.567,0,0,1,.291.764l-.795.165a3.253,3.253,0,0,0-.277-.607,1.425,1.425,0,0,0-.4-.435,1.755,1.755,0,0,0-.6-.262,3.777,3.777,0,0,0-.9-.09,3.816,3.816,0,0,0-1.006.112,1.846,1.846,0,0,0-.653.308,1.1,1.1,0,0,0-.352.45,1.348,1.348,0,0,0-.106.524,1.872,1.872,0,0,0,.061.488.818.818,0,0,0,.239.382,1.533,1.533,0,0,0,.5.285,4.662,4.662,0,0,0,.848.21l1.184.2a3.723,3.723,0,0,1,1.816.727,1.979,1.979,0,0,1,.6,1.582,2.018,2.018,0,0,1-.187.856,1.924,1.924,0,0,1-.554.7,2.8,2.8,0,0,1-.924.465,4.291,4.291,0,0,1-1.274.173,5.846,5.846,0,0,1-1.3-.135,3.132,3.132,0,0,1-1.027-.421,2.239,2.239,0,0,1-.7-.734,2.594,2.594,0,0,1-.33-1.095Z" fill="current"/>
      <path id="Pfad_148" d="M156.963,24.071h.99v1.305h-.99Zm.061,2.986h.869v7.725h-.869Z" fill="current"/>
      <path id="Pfad_149" d="M160.861,32.637a1.788,1.788,0,0,0,.765,1.274,3.239,3.239,0,0,0,1.711.375,2.359,2.359,0,0,0,1.589-.42,1.354,1.354,0,0,0,.465-1.049,2.01,2.01,0,0,0-.06-.5,1.017,1.017,0,0,0-.233-.427,1.33,1.33,0,0,0-.5-.33,3.988,3.988,0,0,0-.832-.226l-.945-.149a8.636,8.636,0,0,1-1.1-.256,2.747,2.747,0,0,1-.824-.4,1.6,1.6,0,0,1-.511-.615,2.132,2.132,0,0,1-.172-.908,1.9,1.9,0,0,1,.225-.922,2.032,2.032,0,0,1,.615-.69,2.993,2.993,0,0,1,.922-.428,4.221,4.221,0,0,1,1.148-.149,4.765,4.765,0,0,1,1.328.157,2.544,2.544,0,0,1,.87.428,1.955,1.955,0,0,1,.524.63,3.627,3.627,0,0,1,.293.764l-.8.165a3.386,3.386,0,0,0-.277-.607,1.454,1.454,0,0,0-.4-.435,1.738,1.738,0,0,0-.6-.262,3.783,3.783,0,0,0-.9-.09,3.822,3.822,0,0,0-1.006.112,1.846,1.846,0,0,0-.653.308,1.1,1.1,0,0,0-.352.45,1.365,1.365,0,0,0-.1.524,1.832,1.832,0,0,0,.06.488.8.8,0,0,0,.24.382,1.5,1.5,0,0,0,.5.285,4.67,4.67,0,0,0,.847.21l1.185.2a3.723,3.723,0,0,1,1.815.727,1.976,1.976,0,0,1,.6,1.582,2.018,2.018,0,0,1-.187.856,1.919,1.919,0,0,1-.556.7,2.78,2.78,0,0,1-.922.465,4.3,4.3,0,0,1-1.275.173,5.837,5.837,0,0,1-1.3-.135,3.119,3.119,0,0,1-1.028-.421,2.226,2.226,0,0,1-.7-.734,2.538,2.538,0,0,1-.33-1.095Z" fill="current"/>
      <path id="Pfad_150" d="M168.882,27.777h-1.2v-.72h1.2V24.926h.87v2.131h2.191v.72h-2.191v5.055a1.835,1.835,0,0,0,.24.967.9.9,0,0,0,.84.4,3.089,3.089,0,0,0,.66-.06,4.119,4.119,0,0,0,.481-.135l.18.705a3.492,3.492,0,0,1-1.4.24,2.008,2.008,0,0,1-1.034-.225,1.442,1.442,0,0,1-.563-.592,2.316,2.316,0,0,1-.233-.848c-.029-.32-.045-.655-.045-1.005Z" fill="current"/>
      <path id="Pfad_151" d="M178.847,33.687a3.822,3.822,0,0,1-.466.472,3.242,3.242,0,0,1-.614.412,3.541,3.541,0,0,1-.758.286,3.728,3.728,0,0,1-.907.1,3.036,3.036,0,0,1-1.951-.585,2.089,2.089,0,0,1-.735-1.739,2.26,2.26,0,0,1,.33-1.276,2.334,2.334,0,0,1,.878-.78,4.1,4.1,0,0,1,1.245-.4,12.333,12.333,0,0,1,1.447-.143l1.5-.059v-.241a2.565,2.565,0,0,0-.442-1.665,1.991,1.991,0,0,0-1.583-.525,4.1,4.1,0,0,0-.938.091,1.917,1.917,0,0,0-.637.261,1.435,1.435,0,0,0-.4.406,1.794,1.794,0,0,0-.225.517l-.795-.12q.42-1.89,3.03-1.889a4.151,4.151,0,0,1,1.365.195,2.048,2.048,0,0,1,1.38,1.462,4.516,4.516,0,0,1,.15,1.222v5.085h-.869Zm-.016-3.016-1.425.061a8.245,8.245,0,0,0-1.455.157,2.871,2.871,0,0,0-.945.36,1.388,1.388,0,0,0-.518.569,1.907,1.907,0,0,0-.157.8,1.6,1.6,0,0,0,.4,1.133,1.844,1.844,0,0,0,1.388.428,4.312,4.312,0,0,0,.983-.114,1.938,1.938,0,0,0,.8-.367,3.32,3.32,0,0,0,.443-.375,1.7,1.7,0,0,0,.285-.4,1.647,1.647,0,0,0,.157-.487,3.885,3.885,0,0,0,.045-.63Z" fill="current"/>
      <path id="Pfad_152" d="M182.2,27.057h.87v1.26a4.026,4.026,0,0,1,1.343-1.148,3.385,3.385,0,0,1,1.522-.352,2.433,2.433,0,0,1,1.95.734,3.118,3.118,0,0,1,.63,2.086v5.145h-.87V29.876a2.773,2.773,0,0,0-.435-1.747,1.679,1.679,0,0,0-1.38-.532,2.959,2.959,0,0,0-.952.172,2.541,2.541,0,0,0-.908.548,2.945,2.945,0,0,0-.675.8,2.375,2.375,0,0,0-.225,1.131v4.531h-.87Z" fill="current"/>
      <path id="Pfad_153" d="M191.288,27.777h-1.2v-.72h1.2V24.926h.87v2.131h2.191v.72h-2.191v5.055a1.835,1.835,0,0,0,.24.967.9.9,0,0,0,.84.4,3.089,3.089,0,0,0,.66-.06,4.117,4.117,0,0,0,.481-.135l.18.705a3.492,3.492,0,0,1-1.4.24,2.009,2.009,0,0,1-1.034-.225,1.442,1.442,0,0,1-.563-.592,2.316,2.316,0,0,1-.233-.848c-.029-.32-.045-.655-.045-1.005Z" fill="current"/>
      <rect id="Rechteck_496" width="8.587" height="35.946" transform="translate(35.312 0.954)" fill="current"/>
      <path id="Pfad_154" d="M87.639.954H97.5L110.7,36.9h-9.543l-8.51-25.21L83.981,36.9H74.438Z" fill="currentf"/>
      <path id="Pfad_155" d="M72.051,2.942l-3.658,7.237a9.692,9.692,0,0,0-5.647-2.386c-1.749,0-4.135.641-4.135,3.022,0,5.408,14.871,1.75,14.871,15.031,0,10.259-9.463,12.088-13.281,12.088A22.664,22.664,0,0,1,47.716,33.8l3.9-7.475s3.419,3.658,7.873,3.658c1.358,0,4.453-.477,4.453-3.658,0-5.687-14.792-2.147-14.792-14.713C49.147,3.9,54.794,0,61.235,0A20.932,20.932,0,0,1,72.051,2.942" fill="current"/>
      <path id="Pfad_156" d="M0,.954H12.724c7.953,0,16.86,7,16.86,17.973,0,9.941-7.4,17.973-16.86,17.973H0V29.107l12.724-.08s9.225-.159,9.225-10.179-9.225-10.1-9.225-10.1L0,8.827Z" fill="current"/>
    </g>
  </g>
</svg>
