<?xml version="1.0" encoding="UTF-8"?>
<svg id="Ebene_1" data-name="Ebene 1" xmlns="http://www.w3.org/2000/svg" version="1.1" viewBox="0 0 68 20">
  <defs>
    <style>
      .cls-1 {
        fill: #000;
      
      }
    </style>
  </defs>
  <g>
    <path class="cls-1" d="M26.4,12.8h6.4v2.4h-9.4V.6h3v12.2Z"/>
    <path class="cls-1" d="M33.9,9.7c0-1.1.2-2,.6-2.9.4-.8,1-1.5,1.8-2,.8-.5,1.7-.7,2.7-.7,1.5,0,2.7.4,3.6,1.3.9.9,1.4,2.1,1.6,3.7v.7c0,1.7-.4,3-1.4,4-.9,1-2.2,1.5-3.7,1.5s-2.8-.5-3.7-1.5c-.9-1-1.4-2.4-1.4-4.1h0ZM36.8,9.9c0,1,.2,1.8.6,2.4.4.5.9.8,1.7.8s1.3-.3,1.6-.8c.4-.5.6-1.4.6-2.6s-.2-1.8-.6-2.4c-.4-.6-1-.8-1.7-.8s-1.3.3-1.6.8c-.4.6-.6,1.4-.6,2.6Z"/>
    <path class="cls-1" d="M45.6,9.7c0-1.7.4-3,1.2-4,.8-1,1.9-1.5,3.2-1.5s2.1.4,2.8,1.2v-1h2.8v10.5c0,1-.2,1.8-.6,2.5-.4.7-1,1.2-1.8,1.6-.8.4-1.7.6-2.8.6s-1.6-.2-2.3-.5c-.8-.3-1.3-.7-1.7-1.2l1.3-1.8c.7.8,1.6,1.2,2.6,1.2s1.4-.2,1.8-.6c.4-.4.6-1,.6-1.8v-.6c-.7.8-1.5,1.1-2.6,1.1s-2.4-.5-3.2-1.5-1.2-2.4-1.2-4.1h0ZM48.5,10c0,1,.2,1.8.6,2.3.4.6.9.8,1.6.8s1.5-.3,1.9-1v-4.6c-.4-.7-1-1-1.9-1s-1.2.3-1.6.9c-.4.6-.6,1.4-.6,2.6Z"/>
    <path class="cls-1" d="M57.3,9.7c0-1.1.2-2,.6-2.9s1-1.5,1.8-2c.8-.5,1.7-.7,2.7-.7,1.5,0,2.7.4,3.6,1.3.9.9,1.4,2.1,1.6,3.7v.7c0,1.7-.4,3-1.4,4-.9,1-2.2,1.5-3.7,1.5s-2.8-.5-3.7-1.5-1.4-2.4-1.4-4.1h0ZM60.2,9.9c0,1,.2,1.8.6,2.4.4.5.9.8,1.7.8s1.3-.3,1.6-.8c.4-.5.6-1.4.6-2.6s-.2-1.8-.6-2.4c-.4-.6-1-.8-1.7-.8s-1.3.3-1.6.8c-.4.6-.6,1.4-.6,2.6Z"/>
  </g>
  <g>
    <path class="cls-1" d="M4.9,13.9c0,.3-.2.6-.4.8s-.5.3-.8.3-.5,0-.6-.2-.3-.3-.4-.5c-.1-.2-.2-.5-.2-.8v-.4c0-.3,0-.5.2-.8.1-.2.2-.4.4-.5.2-.1.4-.2.7-.2s.6,0,.8.3c.2.2.3.4.4.8h-.3c0-.6-.4-.8-.9-.8s-.5.1-.7.3c-.2.2-.3.5-.3.9v.4c0,.4,0,.7.3.9.2.2.4.3.7.3s.5,0,.7-.2c.1-.1.2-.3.3-.6h.3Z"/>
    <path class="cls-1" d="M5.3,13.7c0-.2,0-.4.1-.6s.2-.3.4-.4c.2-.1.4-.2.6-.2.3,0,.6.1.8.3s.3.5.3.9h0c0,.3,0,.5-.1.7,0,.2-.2.3-.4.4-.2.1-.4.2-.6.2-.3,0-.6-.1-.8-.3s-.3-.5-.3-.9h0ZM5.6,13.8c0,.3,0,.5.2.7.1.2.3.3.6.3s.4,0,.6-.3c.2-.2.2-.4.2-.7h0c0-.2,0-.4-.1-.6,0-.2-.2-.3-.3-.4-.1,0-.3-.1-.4-.1-.2,0-.4,0-.6.3s-.2.4-.2.7h0Z"/>
    <path class="cls-1" d="M8.3,12.5v.4c0-.1.2-.3.3-.3.1,0,.3-.1.4-.1.4,0,.6.2.7.5,0-.2.2-.3.3-.3.1,0,.3-.1.5-.1.5,0,.8.3.8.9v1.6h-.3v-1.6c0-.2,0-.4-.1-.5,0-.1-.2-.2-.4-.2-.2,0-.4,0-.5.2-.1.1-.2.3-.2.4v1.6h-.3v-1.6c0-.2,0-.4-.1-.5,0-.1-.2-.2-.4-.2s-.3,0-.4.1c-.1,0-.2.2-.3.4v1.7h-.3v-2.4h.3Z"/>
    <path class="cls-1" d="M14.1,13.8c0,.4,0,.7-.3.9s-.4.3-.7.3-.6-.1-.8-.3v1.2h-.3v-3.4h.2v.3c.2-.3.4-.4.8-.4s.5.1.7.3.2.5.2.9h0ZM13.8,13.7c0-.3,0-.6-.2-.7s-.3-.3-.5-.3-.3,0-.4.1-.2.2-.3.3v1.2c0,.1.2.2.3.3s.3.1.4.1.4,0,.5-.3c.1-.2.2-.4.2-.8Z"/>
    <path class="cls-1" d="M16.2,15c0,0,0-.2,0-.3,0,.1-.2.2-.4.3-.1,0-.3,0-.5,0-.2,0-.4,0-.6-.2-.1-.1-.2-.3-.2-.5s0-.4.3-.6.5-.2.8-.2h.5v-.3c0-.2,0-.3-.2-.4-.1,0-.3-.1-.5-.1s-.3,0-.5.1-.2.2-.2.3h-.3c0-.2,0-.4.3-.5.2-.1.4-.2.7-.2s.5,0,.6.2c.2.1.2.3.2.6v1.1c0,.2,0,.4,0,.5h0s-.3,0-.3,0ZM15.3,14.8c.2,0,.3,0,.5-.1.1,0,.2-.2.3-.3v-.5h-.5c-.3,0-.5,0-.6.1-.2,0-.2.2-.2.4s0,.2.2.3c.1,0,.2.1.4.1Z"/>
    <path class="cls-1" d="M17.4,12.5v.4c.1-.2.2-.3.3-.3.1,0,.3-.1.5-.1.3,0,.5,0,.6.2.1.1.2.4.2.7v1.6h-.3v-1.6c0-.2,0-.4-.1-.5,0-.1-.2-.2-.4-.2s-.3,0-.4.2c-.1.1-.2.2-.3.4v1.7h-.3v-2.4h.3Z"/>
    <path class="cls-1" d="M20.4,14.6l.7-2h.3l-1,2.8h0c-.1.4-.3.6-.6.6s-.1,0-.2,0v-.2s.1,0,.1,0c.1,0,.2,0,.3,0,0,0,.2-.2.2-.3v-.3c.1,0-.8-2.4-.8-2.4h.3l.8,2Z"/>
  </g>
</svg>